<?xml version="1.0" standalone="no"?>
<!DOCTYPE svg PUBLIC "-//W3C//DTD SVG 20010904//EN"
 "http://www.w3.org/TR/2001/REC-SVG-20010904/DTD/svg10.dtd">
<svg version="1.0" xmlns="http://www.w3.org/2000/svg"
 width="460.000000pt" height="460.000000pt" viewBox="0 0 460.000000 460.000000"
 preserveAspectRatio="xMidYMid meet">
<metadata>
Created by potrace 1.11, written by Peter Selinger 2001-2013
</metadata>
<g transform="translate(0.000000,460.000000) scale(0.100000,-0.100000)"
fill="#000000" stroke="none">
<path d="M0 3591 c0 -953 1 -1010 17 -1014 17 -4 17 -5 1 -6 -17 -1 -18 -21
-18 -266 0 -249 1 -265 18 -265 10 0 37 -9 60 -20 47 -23 56 -25 46 -8 -5 8
-2 9 10 5 10 -4 21 -7 24 -7 4 0 0 -5 -8 -11 -12 -9 -11 -10 8 -6 12 3 22 1
22 -4 0 -5 9 -9 21 -9 11 0 18 -4 15 -9 -3 -4 13 -13 35 -20 22 -7 43 -19 46
-27 3 -8 11 -14 19 -14 8 0 14 -7 14 -15 0 -8 4 -15 9 -15 4 0 12 -19 17 -42
l9 -43 57 -3 c43 -2 58 -7 61 -20 4 -13 5 -11 6 5 0 12 5 24 10 27 9 6 51 -53
51 -72 0 -13 -34 -21 -51 -12 -11 6 -14 0 -15 -26 0 -21 3 -30 8 -22 6 11 8
10 8 0 0 -8 5 -10 12 -6 8 5 9 2 5 -9 -6 -16 9 -34 20 -24 9 10 -8 47 -23 47
-8 0 -14 8 -13 18 0 10 3 12 6 5 3 -10 10 -9 27 2 12 8 26 12 31 8 4 -5 5 -1
0 7 -9 16 50 -36 96 -85 16 -16 31 -46 35 -65 4 -19 15 -43 26 -54 10 -11 23
-37 28 -57 6 -20 17 -42 25 -49 8 -7 15 -17 15 -22 0 -10 72 -170 80 -178 3
-3 13 -20 23 -37 17 -32 17 -33 0 -26 -14 5 -13 0 6 -21 18 -19 27 -23 33 -14
4 7 8 8 8 2 0 -5 -13 -23 -29 -38 -22 -21 -34 -26 -55 -20 -21 5 -26 3 -26
-13 0 -11 10 -25 23 -32 l22 -11 -24 6 c-16 4 -21 3 -17 -5 10 -16 -19 -25
-41 -12 -17 10 -17 10 0 11 10 0 15 4 12 10 -3 5 0 8 7 5 9 -4 13 4 12 27 -2
51 -4 54 -15 35 -5 -9 -8 -21 -5 -25 2 -4 -8 -8 -22 -7 -22 0 -27 -4 -27 -25
0 -14 -4 -28 -10 -32 -6 -5 -5 -8 3 -8 7 0 11 -4 8 -9 -3 -4 -35 -11 -71 -15
-53 -5 -71 -3 -95 11 -17 9 -30 23 -30 31 0 7 -4 10 -10 7 -5 -3 -10 -1 -10 4
0 6 5 11 12 11 6 0 8 3 5 6 -4 4 -14 1 -24 -7 -15 -12 -16 -12 -10 4 6 15 4
16 -16 6 -12 -7 -26 -18 -30 -25 -4 -8 -15 -14 -23 -14 -10 0 -13 -6 -10 -17
17 -60 19 -76 5 -71 -8 3 -13 10 -12 15 1 5 -5 10 -13 10 -8 0 -14 -4 -14 -9
0 -12 -26 -38 -38 -38 -18 0 -20 26 -2 37 9 6 20 25 23 42 4 21 14 32 30 36
12 4 29 15 36 27 7 11 8 17 2 14 -5 -4 -14 1 -19 11 -8 14 -5 21 17 34 34 21
36 44 3 47 -32 3 -71 -22 -102 -64 -27 -36 -69 -55 -113 -49 -31 4 -67 -26
-67 -56 0 -10 -4 -21 -10 -24 -5 -3 -10 -17 -10 -31 0 -14 -7 -39 -16 -56 -11
-21 -13 -33 -5 -41 14 -14 51 -19 51 -7 0 15 30 12 36 -4 3 -9 12 -12 21 -9
10 4 14 2 10 -4 -4 -6 0 -13 8 -16 9 -4 12 -1 9 8 -4 10 3 13 28 9 25 -3 28
-1 13 5 -11 5 -24 6 -29 3 -5 -3 -7 2 -3 11 3 10 2 17 -3 17 -16 0 -4 45 13
48 25 5 60 -36 53 -63 -3 -13 -1 -27 4 -30 6 -4 10 -3 9 2 -3 20 2 23 16 9 11
-10 22 -13 37 -7 22 8 93 -6 133 -26 11 -5 35 -10 54 -12 19 -1 41 -7 48 -13
7 -6 16 -8 20 -4 3 3 1 6 -5 6 -7 0 -12 7 -12 16 0 13 2 13 17 -2 14 -13 18
-14 22 -3 2 7 10 20 18 27 11 11 13 11 14 0 0 -7 6 3 13 22 7 19 20 36 29 38
9 2 38 -17 64 -41 45 -42 80 -56 146 -58 9 0 17 -5 17 -11 0 -6 11 -8 25 -6
21 4 24 2 20 -12 -5 -16 -1 -18 36 -13 30 4 40 3 35 -5 -9 -15 14 -15 50 -2
22 9 25 8 16 -3 -16 -19 -4 -28 27 -21 l26 7 -20 -20 c-12 -11 -27 -22 -35
-26 -10 -3 -3 -8 16 -12 27 -6 30 -10 26 -33 l-5 -25 31 22 32 22 0 -23 c0
-16 3 -19 9 -10 6 10 10 10 20 -2 7 -8 10 -20 6 -26 -4 -6 -3 -10 2 -9 4 1 16
-1 26 -6 10 -4 23 -2 32 5 10 9 15 9 15 1 0 -6 7 -11 16 -11 12 0 15 -6 10
-25 -4 -14 -2 -25 3 -25 21 0 41 13 41 26 0 8 6 11 15 8 8 -4 15 -1 15 7 0 7
3 9 7 6 3 -4 12 1 20 11 13 15 14 15 9 -9 -4 -17 0 -31 10 -39 8 -7 13 -19 10
-27 -3 -8 2 -13 13 -13 23 0 23 -32 1 -42 -12 -5 -12 -7 2 -7 14 -1 16 -5 8
-26 -8 -20 -5 -29 12 -45 14 -13 17 -20 8 -20 -7 0 -10 -3 -7 -6 3 -4 2 -15
-4 -25 -8 -15 -6 -17 8 -12 12 4 9 -1 -7 -15 -23 -20 -24 -21 -5 -22 16 0 13
-5 -15 -23 -27 -17 -31 -23 -17 -25 18 -4 18 -4 0 -18 -17 -13 -17 -14 2 -7
19 7 19 6 3 -19 -22 -33 -13 -41 24 -22 l30 16 -18 -26 c-11 -14 -22 -26 -26
-26 -9 0 -41 -60 -33 -60 3 0 15 9 27 19 11 11 35 25 52 30 28 10 29 10 12 -4
-11 -8 -24 -15 -29 -15 -4 0 -15 -7 -23 -15 -13 -13 110 -15 1066 -15 724 0
1079 3 1075 10 -3 5 -1 10 4 10 6 0 11 -4 11 -9 0 -5 56 -10 125 -10 70 -1
125 2 125 7 0 5 -9 29 -19 53 -27 62 -35 114 -21 136 11 17 11 17 6 0 -7 -22
10 -94 35 -154 l18 -43 76 0 c41 0 75 2 75 5 0 3 -20 35 -45 72 -41 59 -52 83
-41 83 3 0 28 -36 57 -80 28 -44 58 -80 65 -80 20 0 17 14 -6 35 -13 11 -18
27 -16 42 3 13 1 21 -5 18 -5 -4 -6 -12 -2 -18 3 -7 -3 -3 -15 7 -24 21 -31
46 -7 26 8 -6 18 -9 24 -6 5 4 16 -1 24 -9 22 -21 23 -20 25 33 2 26 5 55 8
65 6 18 6 18 20 0 11 -15 13 -16 14 -2 0 9 6 16 14 16 8 0 11 -8 8 -21 -4 -21
-4 -21 10 -2 15 19 16 19 27 -2 13 -25 15 -99 2 -104 -5 -2 -4 -14 1 -28 6
-15 12 -20 15 -12 7 17 23 5 23 -19 0 -18 8 -19 135 -19 l135 0 0 75 c0 68 -2
75 -20 75 -11 0 -20 7 -20 15 0 8 -4 15 -10 15 -5 0 -10 7 -10 15 0 8 5 15 10
15 6 0 10 -7 10 -15 0 -8 9 -15 20 -15 18 0 20 7 20 55 l0 55 -27 -11 c-22 -8
-30 -7 -38 5 -16 21 -134 31 -141 11 -4 -8 -11 -15 -18 -15 -6 0 6 16 27 34
20 19 37 38 37 44 0 15 30 36 57 40 36 4 77 33 62 43 -7 4 -21 -1 -32 -12 -23
-21 -33 -24 -42 -9 -3 5 -2 10 2 10 5 0 9 8 10 17 1 10 9 35 18 56 15 36 18
38 48 33 27 -5 28 -5 10 4 -24 10 -30 25 -13 35 6 4 17 23 25 43 20 47 21 522
2 522 -7 0 -6 4 3 10 13 8 12 10 -2 10 -10 0 -18 5 -18 11 0 5 -5 7 -12 3 -6
-4 -8 -3 -5 4 10 15 -2 40 -21 45 -11 3 -8 5 8 6 25 2 25 2 3 11 -27 11 -30
27 -5 33 16 4 16 5 0 6 -21 1 -24 17 -6 25 7 3 3 3 -9 0 -23 -5 -24 -4 -27 39
-1 6 -9 18 -19 25 -10 8 -16 19 -14 25 2 7 -2 20 -11 30 -14 15 -13 17 2 17
28 0 7 20 -22 21 l-27 1 25 8 c14 4 19 8 12 9 -7 1 -10 6 -7 11 3 6 2 10 -4
10 -5 0 -13 9 -16 20 -4 11 -10 18 -15 15 -4 -3 -10 1 -13 9 -3 8 -16 16 -29
19 l-23 4 23 2 c26 1 28 13 7 31 -9 7 -13 15 -11 18 3 2 -5 13 -17 24 -15 13
-18 21 -9 24 6 3 12 9 12 14 0 8 -59 34 -72 31 -5 0 -8 4 -8 9 0 6 4 10 10 10
20 0 -4 31 -44 55 -22 14 -37 25 -32 25 5 0 3 7 -4 15 -10 12 -10 15 4 15 9 0
16 5 16 10 0 6 -8 10 -17 10 -15 0 -16 2 -3 10 12 7 8 10 -15 10 -16 0 -37 4
-45 10 -12 8 -12 10 3 16 9 3 26 4 36 1 13 -3 18 0 17 10 -3 15 -24 33 -41 32
-5 0 1 -6 15 -14 18 -10 20 -14 8 -15 -9 0 -20 5 -23 10 -4 6 -16 8 -27 4 -15
-4 -18 -3 -13 7 6 8 4 11 -7 7 -8 -4 -15 0 -15 7 0 10 5 11 18 4 25 -13 27
-12 27 14 0 18 -9 27 -37 37 -20 8 -39 13 -43 12 -5 -1 -8 3 -8 8 0 6 11 8 28
4 43 -10 13 11 -35 25 -24 6 -43 16 -43 20 0 5 -12 12 -27 16 -26 6 -73 45
-56 45 4 1 -5 12 -22 25 -19 16 -25 25 -15 25 8 1 3 8 -12 16 -37 20 -35 24 7
14 35 -8 61 5 28 13 -10 2 -6 3 10 2 29 -2 37 12 12 21 -8 4 -13 10 -10 14 3
5 -4 11 -15 15 -11 4 -18 10 -15 15 3 4 -4 6 -15 3 -14 -4 -22 2 -30 21 -5 14
-15 26 -22 26 -7 1 3 8 22 17 23 10 30 17 20 21 -8 3 -23 13 -34 24 -17 15
-17 18 -3 18 24 0 40 35 24 52 -6 8 -18 25 -26 38 -13 22 -13 24 1 12 13 -10
20 -9 39 8 20 16 21 19 7 20 -10 0 -18 7 -18 15 0 8 6 12 14 9 11 -4 13 0 9
14 -2 11 0 23 6 26 14 9 14 43 -1 52 -7 5 -9 2 -4 -7 4 -8 1 -6 -8 4 -8 11
-12 26 -9 35 5 11 3 13 -6 7 -10 -6 -11 -3 -3 12 6 11 9 36 6 57 -4 37 15 73
31 58 5 -4 5 3 2 15 -3 13 -1 26 5 29 5 3 7 18 3 32 -6 23 -5 24 12 11 16 -13
17 -12 5 3 -19 24 -23 80 -5 74 11 -4 11 -1 3 14 -6 12 -7 20 -1 20 5 0 8 8 6
18 -1 9 2 22 6 28 6 7 3 16 -6 24 -8 7 -15 18 -15 24 0 6 4 5 9 -3 5 -7 14
-12 21 -9 9 3 8 8 -4 20 -9 9 -16 21 -16 27 0 5 -8 12 -17 14 -10 3 -4 5 14 6
23 1 31 5 27 14 -3 8 5 19 18 26 22 11 6 8 -27 -5 -8 -3 -15 -1 -15 5 0 6 7
11 15 11 9 0 12 6 9 15 -4 8 -13 15 -21 15 -8 0 -11 5 -8 10 4 6 12 8 18 4 7
-3 4 1 -6 9 -13 11 -15 16 -5 19 9 3 1 17 -24 41 -34 35 -56 49 -43 27 4 -6
-1 -7 -12 -3 -15 6 -14 8 7 17 36 16 34 33 -3 41 l-32 7 40 12 c40 13 40 13
13 21 -31 8 -38 25 -10 25 9 0 24 5 32 11 11 8 8 9 -14 4 -18 -4 -32 -2 -36 5
-6 9 -13 9 -30 0 -17 -9 -25 -9 -34 1 -8 9 -8 10 3 4 9 -5 12 -4 7 3 -4 7 -28
12 -53 12 -49 0 -55 -8 -10 -12 31 -3 35 -13 10 -27 -16 -9 -16 -10 -2 -11 9
0 19 -6 22 -14 4 -10 -5 -13 -41 -10 -35 3 -42 2 -27 -5 16 -8 11 -10 -25 -9
l-45 0 48 21 c27 12 47 27 47 36 0 11 -3 12 -8 4 -4 -6 -20 -15 -35 -18 -15
-4 -30 -11 -32 -16 -9 -14 -34 1 -28 17 3 10 -2 14 -18 14 -34 0 -56 15 -34
23 9 4 14 3 11 -1 -3 -5 18 -9 47 -9 l52 -1 -50 15 c-27 7 -63 16 -80 19 -39
8 -45 14 -13 14 14 0 31 7 38 15 17 21 -11 20 -51 0 -16 -9 -34 -13 -38 -10
-5 3 -11 0 -13 -6 -2 -5 -11 -7 -22 -3 -13 5 -14 9 -5 14 7 5 -6 14 -37 24
-27 9 -40 14 -28 12 11 -2 21 2 21 9 0 7 -8 10 -19 7 -12 -3 -18 0 -16 9 2 7
-6 14 -17 16 -16 3 -17 2 -5 -6 19 -13 1 -14 -20 -1 -17 10 -7 16 45 24 18 2
13 4 -12 2 -24 -1 -43 2 -43 6 0 10 -60 -20 -60 -30 0 -4 -11 -15 -25 -25 -17
-12 -26 -14 -31 -5 -4 7 -3 8 4 4 7 -4 12 -1 12 9 0 9 5 13 10 10 5 -3 10 -2
10 2 0 5 14 17 31 27 28 16 29 20 15 28 -19 11 -50 -8 -40 -23 3 -5 1 -9 -5
-9 -5 0 -18 -3 -28 -7 -11 -4 -5 6 15 26 18 19 30 36 27 40 -4 3 -11 -2 -16
-12 -7 -12 -17 -16 -32 -12 -17 5 -19 4 -7 -4 8 -6 11 -11 5 -12 -32 -4 -41
-3 -47 6 -5 6 -8 3 -8 -6 0 -22 -29 -33 -36 -14 -4 9 -1 22 6 30 6 8 10 20 7
27 -3 7 -6 4 -6 -7 -1 -17 -3 -17 -11 -5 -5 8 -10 10 -10 4 0 -6 -6 -11 -14
-11 -8 0 -12 6 -9 14 3 7 10 13 15 13 6 0 7 7 4 16 -4 9 -1 23 5 30 13 15 5
44 -11 44 -6 0 -8 -11 -4 -27 4 -22 3 -25 -6 -13 -9 13 -11 12 -9 -5 2 -34 -1
-41 -12 -25 -9 13 -10 13 -6 0 2 -8 11 -14 18 -12 8 2 10 0 6 -4 -14 -14 -36
-12 -49 4 -10 12 -10 14 0 8 6 -4 12 -4 12 1 0 15 -15 30 -30 31 -8 0 -27 3
-43 5 -22 3 -25 2 -16 -9 13 -16 33 -19 24 -4 -13 21 2 8 22 -19 l22 -28 -22
2 c-32 4 -33 4 -17 15 13 8 12 10 -5 11 -11 1 -25 3 -32 3 -6 1 -15 5 -19 9
-12 11 -26 8 -18 -4 3 -6 1 -15 -6 -19 -9 -5 -5 -8 11 -9 51 -1 61 -5 75 -35
13 -27 13 -28 0 -13 -17 22 -83 36 -70 15 4 -7 -2 -5 -13 5 -22 19 -43 23 -43
7 0 -5 6 -10 14 -10 8 0 17 -4 20 -8 2 -4 -27 -7 -65 -7 -44 1 -64 -2 -54 -8
17 -9 11 -27 -8 -27 -7 0 -6 4 3 10 13 8 13 10 -1 10 -23 0 -30 -10 -16 -25 6
-6 20 -10 30 -7 11 3 22 1 26 -4 3 -5 22 -17 41 -27 l35 -17 -35 6 c-19 3 -39
11 -45 18 -17 20 -81 9 -108 -18 -14 -14 -22 -27 -19 -30 6 -6 -30 -10 -63 -7
-20 2 -20 2 0 -13 18 -13 15 -13 -30 -4 -28 6 -61 10 -75 10 -23 -1 -23 0 -5
8 18 8 17 9 -7 9 -16 1 -28 -2 -28 -6 0 -13 -60 -43 -86 -43 -13 0 -24 -4 -24
-10 0 -5 -15 -10 -32 -10 -25 0 -29 3 -18 10 12 8 12 10 -5 9 -26 -1 -66 -17
-45 -18 12 -1 13 -3 1 -10 -10 -6 -10 -10 -1 -16 8 -5 5 -12 -11 -23 -21 -15
-21 -16 -4 -29 11 -7 14 -13 8 -13 -5 0 -22 -11 -37 -25 -32 -30 -30 -30 23
-7 22 10 38 22 33 27 -4 5 -1 5 6 1 17 -10 15 -26 -3 -26 -28 0 -94 -41 -89
-55 3 -7 -4 -18 -15 -25 -12 -6 -21 -16 -21 -22 0 -9 3 -9 12 0 7 7 21 12 32
12 16 -1 13 -5 -14 -19 -19 -11 -39 -17 -44 -14 -5 4 -6 1 -2 -5 9 -16 38 -15
56 1 12 10 12 9 2 -5 -7 -9 -24 -19 -39 -23 -14 -3 -23 -9 -19 -12 3 -3 0 -13
-7 -22 -7 -8 5 -5 28 9 l40 25 -18 -28 c-12 -19 -14 -27 -5 -27 10 0 9 -3 -1
-9 -8 -5 -15 -20 -17 -33 -1 -12 -3 -27 -3 -31 -1 -5 -6 -5 -13 -1 -8 5 -9 0
-6 -14 4 -12 3 -20 -2 -17 -4 3 -11 -3 -14 -12 -4 -10 -1 -20 8 -25 17 -9 10
-49 -8 -42 -7 3 -12 -4 -12 -16 0 -15 5 -18 18 -14 19 6 25 -10 8 -21 -6 -3
-10 -13 -10 -21 0 -8 5 -12 10 -9 6 3 10 1 10 -5 0 -8 6 -8 20 0 16 9 18 8 14
-5 -4 -8 -9 -15 -13 -15 -4 0 -7 -9 -7 -20 0 -25 9 -25 32 -2 15 14 17 14 12
1 -3 -9 -2 -22 3 -30 7 -12 9 -12 9 0 0 8 3 11 6 8 4 -4 1 -13 -6 -22 -7 -9
-10 -19 -6 -22 4 -4 12 -1 17 7 8 11 9 9 4 -10 -3 -14 -7 -31 -7 -38 -1 -7 -9
-10 -22 -7 -19 5 -19 5 -3 -5 14 -9 16 -15 6 -26 -6 -7 -15 -11 -20 -8 -5 3
-9 -4 -9 -15 0 -19 11 -26 34 -22 5 1 4 -5 -3 -13 -7 -8 -10 -20 -6 -27 6 -8
10 -7 16 2 7 11 9 10 9 -3 0 -9 -5 -20 -10 -23 -6 -4 -8 -11 -4 -16 3 -6 -2
-16 -12 -24 -11 -7 -20 -18 -20 -24 -1 -6 -2 -19 -3 -28 -1 -15 -5 -14 -20 7
-11 13 -18 28 -15 31 2 4 -7 2 -21 -4 -14 -7 -23 -16 -21 -22 2 -5 -6 -15 -18
-22 -12 -7 -15 -12 -8 -13 7 0 4 -8 -8 -20 -21 -21 -28 -46 -10 -35 5 3 10 -1
10 -10 0 -8 -11 -20 -25 -25 -14 -5 -25 -14 -25 -19 0 -5 -9 -13 -20 -16 -11
-3 -20 -11 -20 -16 0 -6 5 -7 10 -4 6 3 10 1 10 -4 0 -6 -4 -12 -10 -12 -5 -1
-14 -3 -20 -4 -5 -1 -15 -3 -21 -4 -13 -1 -2 -21 12 -21 6 0 7 5 3 12 -4 7 -3
8 5 4 14 -9 5 -26 -14 -26 -7 0 -15 -6 -18 -12 -3 -10 -8 -10 -21 1 -13 11
-20 11 -28 3 -9 -9 -9 -12 0 -12 18 0 15 -27 -4 -34 -8 -3 -12 -10 -9 -16 8
-13 -5 -13 -25 0 -8 5 -10 10 -4 10 5 0 19 7 30 15 15 13 13 13 -15 -1 -31
-15 -33 -18 -18 -29 29 -21 21 -38 -13 -31 -19 3 -29 2 -25 -4 3 -6 -1 -10 -9
-10 -9 0 -16 -4 -16 -9 0 -4 -12 -7 -27 -4 -23 3 -25 2 -8 -6 l20 -8 -20 -5
c-17 -5 -16 -6 5 -7 20 -1 22 -3 10 -11 -8 -5 -26 -10 -40 -11 -23 0 -23 -1
-5 -9 18 -7 16 -9 -12 -15 -36 -8 -43 -21 -15 -28 13 -4 11 -5 -5 -6 -15 -1
-23 -7 -23 -18 0 -13 -2 -15 -8 -5 -6 9 -12 6 -20 -12 -9 -21 -8 -25 6 -29 9
-3 4 -6 -13 -7 -45 -2 -72 -15 -55 -25 7 -4 22 -9 34 -10 11 -1 25 -3 31 -4 5
0 -1 -8 -13 -17 -18 -13 -26 -13 -38 -3 -12 10 -13 9 -8 -5 4 -10 1 -16 -7
-17 -8 0 -23 -3 -34 -5 -11 -3 -29 -5 -40 -5 -19 0 -18 -2 4 -20 l25 -20 -29
7 c-18 4 -26 3 -22 -3 4 -6 0 -14 -9 -17 -23 -9 -26 -8 -19 7 4 6 -1 3 -9 -7
-13 -16 -13 -22 -3 -28 9 -7 8 -8 -3 -7 -37 4 -43 0 -29 -17 12 -15 11 -16
-10 -9 -18 5 -22 4 -15 -6 6 -11 5 -12 -8 -2 -8 7 -18 10 -22 6 -4 -4 -4 1 0
11 5 13 4 17 -3 13 -10 -6 -28 19 -25 35 1 4 -9 3 -23 -2 -27 -10 -34 -4 -41
37 -3 15 -11 31 -17 35 -16 11 10 28 42 28 16 0 21 4 17 15 -6 18 7 19 35 5
11 -6 25 -8 32 -3 8 5 4 9 -13 14 -24 7 -24 7 -2 8 12 1 25 7 28 15 3 8 17 17
30 20 14 4 22 11 19 16 -3 6 -1 10 5 10 6 0 8 5 5 10 -3 6 -1 10 5 10 6 0 8 5
5 10 -3 6 3 10 15 10 12 0 19 4 16 9 -3 5 0 11 8 14 8 3 12 14 10 24 -3 13 6
23 37 37 30 13 37 21 27 27 -7 5 -8 9 -2 9 6 0 19 18 29 39 11 26 22 38 31 34
9 -3 14 1 14 12 0 12 5 15 23 10 18 -6 20 -5 10 6 -21 21 -15 32 16 27 20 -3
32 1 41 15 9 15 9 17 -1 12 -7 -5 -10 -3 -7 6 3 8 16 16 30 19 17 3 24 11 22
23 -1 10 4 17 14 17 12 0 13 3 4 12 -16 16 -15 28 3 28 7 0 18 7 23 16 5 9 13
17 18 17 5 1 8 6 6 11 -2 5 4 6 13 3 8 -4 15 -2 15 3 0 6 18 10 40 10 23 0 40
5 40 11 0 6 -9 9 -20 6 -11 -3 -20 -1 -20 5 0 5 -4 7 -8 4 -4 -2 -13 4 -20 15
-11 17 -9 19 13 19 14 0 25 5 25 11 0 5 -5 7 -11 4 -6 -4 -9 0 -7 11 2 11 10
22 18 26 9 4 2 7 -17 7 -46 1 -41 17 7 25 26 4 38 10 34 17 -4 6 0 16 7 21 10
6 6 7 -11 3 -21 -5 -22 -4 -7 5 14 9 15 13 4 24 -7 7 -23 17 -35 20 -12 4 -20
11 -17 16 3 5 -3 13 -12 19 -10 6 -12 11 -5 11 19 0 14 20 -5 20 -13 1 -11 4
7 13 14 7 25 19 24 27 0 8 -2 23 -2 33 -2 12 -11 17 -34 18 -30 1 -30 2 -9 8
14 4 27 13 29 20 3 9 -2 11 -19 7 -17 -5 -13 -1 9 12 l34 19 -34 10 -33 11 30
2 c26 1 27 3 10 10 -19 8 -19 9 -1 9 15 1 16 4 6 16 -10 12 -10 15 1 16 8 0 5
4 -6 9 -11 5 -14 9 -7 9 7 1 10 6 7 11 -3 6 4 10 17 10 17 0 19 3 9 9 -10 7
-11 13 -2 30 7 11 8 21 4 21 -4 0 1 7 11 15 19 14 19 15 -7 15 -34 0 -35 18
-1 26 15 4 23 12 20 20 -3 7 0 14 6 16 6 2 4 11 -6 21 -15 15 -15 17 -2 17 9
0 16 5 16 10 0 20 2 25 12 38 6 7 11 26 10 42 0 22 4 30 16 30 13 0 14 2 3 9
-9 6 -10 11 -2 15 6 4 9 12 6 17 -4 5 3 9 14 9 26 0 36 17 14 23 -17 4 -17 5
0 6 10 0 16 5 12 10 -3 5 7 19 21 30 l27 21 -29 0 -29 1 25 21 c14 11 39 31
55 45 21 17 23 21 7 13 -19 -9 -23 -8 -31 12 -6 17 -5 24 5 26 8 2 12 7 9 12
-3 5 4 15 15 23 11 7 17 17 13 20 -3 4 -1 7 5 7 7 0 12 5 12 10 0 6 -8 10 -19
10 -10 0 -21 9 -24 20 -4 15 0 20 14 20 10 0 19 -4 19 -10 0 -5 7 -10 15 -10
8 0 15 -9 15 -20 0 -14 7 -20 23 -21 21 0 21 -1 2 -9 -17 -7 -17 -9 -3 -9 15
-1 16 -5 6 -26 -6 -14 -18 -25 -27 -25 -14 0 -14 -2 -1 -9 8 -6 18 -7 23 -4 5
3 15 -4 23 -16 9 -12 20 -19 25 -16 5 4 14 3 20 -1 8 -4 7 -9 -2 -15 -10 -6
-5 -9 16 -9 29 -1 29 -1 11 -15 -14 -11 -16 -15 -5 -15 8 -1 3 -7 -11 -16 -16
-10 -18 -13 -5 -8 11 4 34 9 50 12 48 8 51 37 5 55 -9 3 -4 6 13 6 15 1 27 6
27 12 0 6 7 9 15 5 8 -3 15 -1 15 4 0 18 -38 20 -74 5 -21 -9 -41 -14 -44 -11
-3 3 1 6 9 6 12 0 12 2 0 9 -12 8 -10 11 10 16 14 3 29 5 35 4 5 -1 18 -1 28
0 18 1 18 2 -3 20 -12 11 -31 17 -44 15 -21 -4 -21 -4 -2 5 27 13 68 14 60 1
-3 -5 -1 -10 4 -10 6 0 11 6 11 14 0 8 8 17 18 21 15 6 14 8 -8 21 -22 12 -22
14 -5 13 11 -1 27 -1 35 0 13 1 13 2 0 11 -12 8 -11 10 8 10 30 0 28 14 -5 27
-28 11 -28 11 5 6 29 -5 32 -3 30 18 -3 21 1 23 30 21 17 -2 32 -1 32 3 0 16
-22 45 -30 40 -6 -3 -7 1 -3 11 6 16 7 16 18 0 7 -9 25 -16 41 -16 27 0 27 1
8 15 -10 8 -14 15 -9 14 32 -4 38 2 17 17 -12 8 -26 13 -30 10 -5 -3 -9 1 -9
8 0 8 6 12 14 9 9 -4 11 0 7 13 -4 13 3 9 21 -11 l28 -30 -7 30 c-4 16 -13 33
-19 37 -12 8 -10 9 16 12 6 1 11 12 9 25 -2 20 0 22 13 11 9 -8 15 -9 14 -4
-4 21 2 26 17 13 15 -12 16 -11 9 10 -4 15 -3 26 5 31 9 6 2 15 -24 31 -20 13
-42 36 -48 51 -7 15 -16 24 -20 22 -5 -3 -11 2 -14 10 -3 9 -12 16 -20 16 -8
0 -14 4 -14 8 0 5 -11 14 -24 20 -19 8 -27 8 -36 -3 -10 -12 -15 -11 -32 8
-11 12 -16 16 -12 8 4 -9 2 -12 -7 -9 -8 3 -13 11 -11 17 1 7 -2 10 -8 6 -6
-3 -7 -11 -4 -17 5 -8 1 -9 -12 -4 -31 12 -56 17 -100 20 -31 1 -41 -1 -37
-11 4 -9 -1 -11 -13 -7 -11 3 -5 -3 11 -12 18 -10 25 -19 17 -22 -7 -2 -24 4
-38 13 -24 16 -27 15 -45 -1 -15 -13 -16 -20 -7 -31 9 -11 13 -12 21 -1 6 9 7
8 3 -5 -3 -10 -6 -21 -6 -23 0 -2 -9 -4 -20 -4 -11 0 -20 5 -20 10 0 6 -4 10
-10 10 -16 0 -12 -21 8 -43 16 -20 16 -20 -8 -14 -24 6 -24 5 -6 -8 11 -8 23
-15 28 -15 17 0 7 -18 -12 -23 -11 -3 -18 -2 -15 3 3 4 -2 11 -11 14 -23 9
-55 -33 -43 -56 7 -14 6 -18 -6 -18 -18 0 -18 -3 0 -62 10 -36 11 -48 2 -48
-20 0 -34 14 -42 40 -4 14 -16 37 -27 52 -11 16 -16 33 -12 40 4 7 9 23 10 37
2 13 7 27 11 30 5 3 8 16 7 29 -1 13 4 22 12 22 17 0 18 17 2 23 -9 3 -5 12
11 30 19 21 21 29 12 41 -9 11 -8 15 4 20 8 3 15 11 15 18 0 16 55 42 70 33 5
-3 10 -2 10 4 0 6 11 13 24 17 13 3 26 14 29 23 4 17 2 17 -42 3 -47 -16 -231
-23 -231 -9 0 4 -11 7 -25 7 -18 0 -25 5 -25 20 0 18 -10 24 -31 22 -11 -2
-31 56 -24 67 11 18 -4 51 -21 44 -7 -3 -14 0 -14 6 0 15 -55 14 -67 -1 -5 -7
-15 -32 -23 -55 -7 -23 -17 -40 -22 -37 -5 3 -17 -1 -26 -9 -9 -8 -26 -17 -37
-21 -18 -5 -45 -47 -45 -70 0 -5 -8 -18 -17 -28 -41 -46 -20 -75 59 -81 24 -2
53 -9 65 -15 12 -7 36 -12 54 -12 47 0 98 -54 91 -98 -5 -40 -16 -48 -87 -67
-75 -19 -70 -20 -100 12 -14 15 -25 24 -25 20 0 -5 -7 -1 -16 8 -12 11 -33 15
-80 14 -35 -1 -64 -6 -64 -11 0 -5 -13 -2 -29 6 -16 9 -32 12 -35 8 -4 -3 -40
11 -80 33 -72 38 -73 39 -107 23 -18 -9 -38 -14 -43 -10 -5 3 -32 4 -58 3 -41
-2 -48 0 -48 16 0 15 -2 16 -10 3 -5 -8 -10 -10 -10 -4 0 6 7 17 15 24 9 8 13
21 9 32 -3 10 0 26 7 34 11 13 9 19 -11 35 -18 13 -21 19 -9 19 11 0 16 10 16
38 -1 20 3 45 7 54 5 11 1 22 -12 33 -20 18 -19 65 2 65 6 0 4 5 -4 10 -12 8
-11 10 7 10 12 0 25 4 28 10 16 25 42 28 84 9 l42 -19 25 25 c13 13 24 31 24
40 0 13 -24 15 -174 15 l-174 0 -7 -36 c-3 -20 -10 -41 -16 -48 -5 -6 -29 -37
-54 -68 -26 -32 -51 -58 -56 -58 -20 0 -80 -53 -78 -69 5 -56 -31 -57 -63 -1
-25 43 -42 50 -53 23 -6 -16 -8 -15 -16 5 -4 12 -6 28 -3 36 6 16 -25 30 -49
20 -12 -4 -13 -11 -5 -34 5 -17 15 -27 22 -24 16 6 28 -42 19 -75 -3 -11 -1
-21 5 -21 12 0 35 -87 26 -101 -3 -6 -15 -9 -25 -6 -13 3 -24 -2 -32 -16 -6
-12 -23 -23 -37 -25 -14 -2 -44 -6 -67 -9 -44 -5 -113 19 -113 41 0 6 -9 17
-20 24 -20 12 -27 38 -12 44 5 2 12 20 15 41 4 28 2 37 -9 37 -10 0 -13 8 -10
25 3 17 0 25 -9 25 -7 0 -15 -4 -17 -9 -1 -5 -27 1 -55 12 -52 19 -53 21 -55
61 0 22 0 54 1 69 1 16 -3 35 -10 43 -7 9 -9 29 -5 54 6 36 4 40 -14 40 -20 0
-20 -5 -20 -1009z m2275 649 c10 -11 16 -20 13 -20 -3 0 -13 9 -23 20 -10 11
-16 20 -13 20 3 0 13 -9 23 -20z m-1320 -30 c3 -5 -1 -10 -10 -10 -9 0 -13 5
-10 10 3 6 8 10 10 10 2 0 7 -4 10 -10z m1295 -16 c0 -2 -9 0 -20 6 -11 6 -20
13 -20 16 0 2 9 0 20 -6 11 -6 20 -13 20 -16z m-160 -44 c0 -5 -4 -10 -10 -10
-5 0 -10 5 -10 10 0 6 5 10 10 10 6 0 10 -4 10 -10z m-2010 -194 c0 -10 -7
-12 -22 -8 -21 5 -21 6 -2 13 10 4 20 8 22 8 1 1 2 -5 2 -13z m1893 -45 c23
-9 45 -51 26 -51 -5 0 -9 6 -9 13 0 7 -12 20 -27 29 -31 19 -27 23 10 9z m397
-41 c13 -8 13 -10 -2 -10 -9 0 -20 5 -23 10 -8 13 5 13 25 0z m-341 -44 c9
-11 9 -16 0 -21 -10 -7 -28 10 -29 28 0 12 17 8 29 -7z m897 -141 c-3 -8 0
-15 6 -15 6 0 8 -3 5 -6 -8 -8 -37 14 -37 27 0 5 7 9 16 9 10 0 14 -6 10 -15z
m134 -5 c0 -5 -2 -10 -4 -10 -3 0 -8 5 -11 10 -3 6 -1 10 4 10 6 0 11 -4 11
-10z m-213 -15 c4 -4 3 -5 -4 -2 -6 4 -13 2 -15 -4 -2 -7 -14 -8 -33 -3 l-30
8 25 6 c30 8 47 7 57 -5z m68 -15 c3 -5 1 -10 -4 -10 -6 0 -11 5 -11 10 0 6 2
10 4 10 3 0 8 -4 11 -10z m245 -4 c0 -2 -7 -7 -16 -10 -8 -3 -12 -2 -9 4 6 10
25 14 25 6z m70 -46 c0 -5 -5 -10 -11 -10 -5 0 -7 5 -4 10 3 6 8 10 11 10 2 0
4 -4 4 -10z m-985 -40 c-3 -5 -12 -10 -18 -10 -7 0 -6 4 3 10 19 12 23 12 15
0z m145 -47 c-8 -3 -17 -9 -20 -13 -9 -13 -90 -23 -90 -11 0 6 11 11 25 11 14
0 25 5 25 10 0 6 17 10 38 9 20 0 30 -3 22 -6z m592 -56 c20 19 38 9 33 -17
-3 -14 0 -18 8 -13 16 10 67 11 61 1 -3 -5 -11 -5 -17 -2 -7 4 -9 4 -5 0 3 -4
8 -6 11 -4 8 5 47 -34 47 -48 0 -7 6 -15 13 -17 9 -4 8 -8 -3 -16 -12 -9 -10
-11 13 -11 19 0 27 -5 26 -17 0 -11 -3 -13 -6 -5 -2 6 -17 12 -31 12 -19 0
-23 -3 -13 -9 7 -5 11 -13 8 -18 -10 -15 16 -61 36 -67 10 -2 16 -8 15 -13 -2
-4 8 -19 21 -32 16 -16 22 -19 18 -8 -3 9 -2 17 3 17 6 0 10 5 10 11 0 5 -4 7
-10 4 -5 -3 -10 1 -10 9 0 9 5 16 11 16 5 0 7 5 3 11 -4 7 -1 10 6 7 8 -2 20
-23 28 -47 9 -28 25 -49 46 -62 25 -16 27 -19 11 -20 -11 0 -15 -3 -9 -5 7 -3
10 -14 7 -25 -3 -10 0 -33 7 -49 8 -20 9 -34 3 -43 -14 -17 9 -93 27 -89 10 2
11 0 2 -11 -7 -8 -8 -18 -4 -22 4 -5 1 -5 -5 -1 -8 4 -13 1 -13 -8 0 -19 -16
-21 -26 -4 -4 7 -3 8 4 4 13 -8 16 4 4 19 -9 13 -42 18 -42 7 0 -18 -26 -20
-45 -5 -20 16 -20 16 0 9 18 -5 18 -5 3 7 -13 10 -14 17 -5 32 6 11 10 39 8
62 -1 31 2 45 14 49 8 3 15 10 15 16 0 5 -5 6 -11 3 -6 -4 -19 2 -29 13 -14
15 -16 22 -7 26 8 3 6 9 -7 20 -17 14 -20 14 -31 -1 -11 -15 -13 -15 -19 4 -4
11 -16 23 -27 26 -13 4 -18 10 -14 17 5 8 2 10 -11 6 -11 -3 -36 -1 -57 3 -30
7 -39 6 -47 -8 -5 -9 -10 -11 -10 -3 0 7 -14 12 -36 12 -19 0 -33 -4 -29 -9 3
-5 -4 -12 -15 -16 -11 -3 -20 -11 -20 -16 0 -5 -5 -9 -11 -9 -8 0 -8 4 0 14 8
10 9 16 1 21 -5 3 -10 1 -10 -5 0 -6 -4 -8 -10 -5 -6 3 -7 -1 -4 -9 3 -9 1
-16 -5 -16 -6 0 -11 -15 -12 -32 0 -29 -1 -30 -9 -11 -5 12 -18 24 -30 28 -17
5 -19 10 -9 21 8 10 8 14 0 14 -6 0 -11 -5 -11 -11 0 -5 -4 -7 -10 -4 -19 11
-10 -6 15 -31 26 -26 32 -49 15 -59 -6 -4 -9 -22 -5 -42 3 -21 1 -32 -5 -28
-5 3 -10 1 -10 -4 0 -6 6 -11 13 -11 7 -1 6 -5 -5 -14 -16 -12 -16 -13 3 -26
23 -17 25 -32 3 -23 -13 5 -15 2 -9 -15 8 -26 -19 -32 -29 -7 -3 8 -10 15 -16
15 -6 0 -18 -7 -26 -15 -22 -21 -53 -20 -48 3 3 11 -3 21 -17 27 -12 6 -21 14
-20 19 2 5 -3 13 -11 17 -10 7 -9 9 5 9 10 0 16 4 13 8 -7 12 12 38 21 29 4
-5 1 -12 -6 -16 -10 -6 -10 -10 -1 -16 8 -5 6 -11 -7 -21 -14 -10 -15 -13 -3
-14 8 0 21 4 29 9 12 8 12 12 2 24 -9 12 -9 16 1 20 10 4 10 7 -1 15 -10 7
-11 14 -1 31 6 12 13 37 14 56 3 27 0 36 -15 40 -17 6 -16 8 9 30 15 13 29 21
32 19 2 -3 -2 -9 -10 -14 -11 -7 -12 -10 -2 -10 7 0 23 23 34 50 11 28 23 48
26 45 8 -8 31 29 32 51 0 25 21 46 35 36 6 -4 11 -22 13 -41 3 -30 1 -33 -17
-28 -12 3 -19 1 -15 -4 9 -15 28 -10 46 10 11 13 13 22 6 29 -8 8 -6 16 6 27
19 20 21 32 2 16 -10 -8 -20 -8 -38 2 -21 10 -23 16 -15 35 6 12 14 22 20 22
5 0 3 -8 -4 -17 -12 -15 -12 -16 2 -11 9 4 22 1 29 -5 10 -9 12 -8 7 6 -4 9
-2 17 3 17 5 0 12 11 16 25 3 14 12 25 19 25 16 0 29 35 19 52 -3 7 5 1 18
-14 22 -25 26 -26 40 -11z m-685 -33 c-3 -3 -12 -4 -19 -1 -8 3 -5 6 6 6 11 1
17 -2 13 -5z m228 -103 c-11 -9 -94 -26 -84 -17 4 4 33 13 89 25 2 1 0 -3 -5
-8z m675 -21 c0 -5 -4 -10 -10 -10 -5 0 -10 5 -10 10 0 6 5 10 10 10 6 0 10
-4 10 -10z m-713 -36 c-3 -3 -12 -4 -19 -1 -8 3 -5 6 6 6 11 1 17 -2 13 -5z
m1223 -14 c0 -5 -2 -10 -4 -10 -3 0 -8 5 -11 10 -3 6 -1 10 4 10 6 0 11 -4 11
-10z m-1450 -4 c0 -2 -7 -7 -16 -10 -8 -3 -12 -2 -9 4 6 10 25 14 25 6z m940
-26 c-6 -11 -12 -20 -14 -20 -2 0 -2 9 1 20 3 11 9 20 15 20 5 0 4 -9 -2 -20z
m-766 4 c16 -6 12 -24 -5 -24 -6 0 -7 5 -3 12 5 8 2 9 -10 5 -10 -4 -15 -3
-11 3 7 12 8 12 29 4z m1220 -33 c-2 -3 -12 3 -22 13 -16 17 -16 18 5 5 12 -7
20 -15 17 -18z m-1476 -5 c-10 -7 -14 -17 -10 -21 4 -5 1 -5 -7 0 -12 7 -11
10 4 22 24 17 36 17 13 -1z m332 10 c0 -2 -9 -6 -20 -9 -11 -3 -18 -1 -14 4 5
9 34 13 34 5z m34 -31 c-5 -12 0 -14 30 -10 34 6 35 5 27 -17 -5 -13 -14 -22
-21 -20 -6 1 -8 -2 -5 -8 4 -6 14 -9 22 -6 11 5 14 1 10 -14 -3 -11 0 -18 7
-17 6 1 10 -8 10 -20 -1 -14 4 -23 14 -23 12 0 12 3 1 18 -13 16 -13 16 6 2
11 -8 21 -15 23 -16 4 -3 -56 -64 -62 -64 -3 0 -3 6 -1 13 7 17 -13 45 -22 32
-10 -12 -65 -16 -57 -3 3 4 11 5 17 1 7 -3 4 3 -6 15 -15 16 -24 19 -43 12
-18 -7 -22 -6 -17 5 3 8 9 15 14 15 5 0 3 11 -3 25 -10 22 -9 28 10 41 12 8
19 20 16 26 -4 6 0 14 7 19 21 13 29 11 23 -6z m-1824 -35 c0 -5 -4 -10 -10
-10 -5 0 -10 5 -10 10 0 6 5 10 10 10 6 0 10 -4 10 -10z m2726 -12 c-10 17 -2
15 24 -8 21 -18 20 -25 -3 -21 -4 1 -3 -8 3 -18 9 -17 7 -19 -11 -16 -17 3
-19 2 -9 -10 7 -8 16 -13 20 -10 5 3 12 0 16 -6 4 -8 3 -9 -5 -5 -6 4 -14 1
-17 -7 -4 -11 -13 -13 -33 -7 -25 7 -27 5 -25 -21 2 -25 0 -27 -16 -19 -16 8
-18 7 -15 -10 5 -25 3 -25 -21 2 -10 12 -13 18 -6 14 7 -4 12 -1 13 8 1 9 2
21 3 27 0 5 12 19 26 30 14 12 18 17 10 13 -12 -6 -13 -5 -3 7 10 12 10 18 0
29 -6 7 2 4 18 -6 17 -10 25 -12 18 -4 -7 8 -13 23 -13 33 0 17 2 18 17 6 11
-10 14 -10 9 -1z m-236 -49 c0 -3 -7 -6 -15 -6 -9 0 -15 10 -15 26 0 24 1 24
15 5 8 -10 15 -22 15 -25z m-1034 19 c4 -7 3 -10 -1 -5 -5 4 -22 -5 -39 -20
-17 -16 -23 -19 -13 -7 9 11 14 24 10 29 -5 4 -3 5 4 1 6 -3 14 -2 18 4 8 13
12 13 21 -2z m1204 -42 c0 -3 -4 -8 -10 -11 -5 -3 -10 -1 -10 4 0 6 5 11 10
11 6 0 10 -2 10 -4z m-160 -91 c0 -8 -2 -15 -4 -15 -2 0 -6 7 -10 15 -3 8 -1
15 4 15 6 0 10 -7 10 -15z m-1010 -81 c-18 -21 -24 -10 -8 15 7 12 14 17 16
11 2 -6 -2 -17 -8 -26z m-1850 10 c0 -2 -7 -4 -15 -4 -8 0 -15 4 -15 10 0 5 7
7 15 4 8 -4 15 -8 15 -10z m2849 -39 c-13 -13 -26 -20 -28 -14 -1 6 5 17 15
24 31 23 38 17 13 -10z m-399 1 c0 -3 -4 -8 -10 -11 -5 -3 -10 -1 -10 4 0 6 5
11 10 11 6 0 10 -2 10 -4z m-2710 -105 c0 -17 -18 -21 -24 -6 -3 9 0 15 9 15
8 0 15 -4 15 -9z m2112 -95 c7 4 8 2 4 -5 -9 -13 -26 -5 -25 12 0 9 2 8 6 -1
2 -6 10 -9 15 -6z m-2144 -8 c-3 -7 -12 -14 -22 -14 -13 -2 -13 -1 -1 3 8 2
13 9 10 14 -4 5 -1 9 5 9 7 0 10 -6 8 -12z m2095 -85 c3 -5 -1 -14 -8 -20 -11
-10 -13 -9 -12 7 1 20 12 26 20 13z m-2016 -145 c-3 -8 -6 -5 -6 6 -1 11 2 17
5 13 3 -3 4 -12 1 -19z m83 -294 c0 -8 -5 -12 -10 -9 -6 4 -8 11 -5 16 9 14
15 11 15 -7z m880 -65 c0 8 3 12 6 8 3 -3 -1 -16 -10 -28 l-16 -23 -6 32 c-4
18 -10 32 -15 32 -5 0 -9 6 -9 13 1 6 12 -1 25 -18 14 -17 25 -24 25 -16z
m-933 11 c2 -8 -1 -21 -6 -29 -8 -12 -14 -13 -35 -3 -14 6 -26 17 -26 24 0 10
3 9 9 -1 7 -11 10 -9 16 8 7 25 38 25 42 1z m-77 0 c0 -5 -5 -10 -11 -10 -5 0
-7 5 -4 10 3 6 8 10 11 10 2 0 4 -4 4 -10z m3841 -8 c0 10 2 10 5 1 3 -7 13
-9 22 -6 15 4 15 3 2 -6 -12 -9 -13 -11 -1 -11 8 0 12 -3 8 -6 -7 -7 -75 25
-84 40 -4 6 5 3 20 -7 19 -13 27 -14 28 -5z m-2801 -48 c0 -17 38 -53 55 -54
6 0 3 5 -5 10 -13 8 -13 10 2 10 28 0 31 -19 3 -26 -14 -3 -25 -14 -25 -23 -1
-10 -12 -3 -35 24 -35 40 -45 63 -23 49 7 -4 8 -3 4 4 -9 15 2 34 15 27 5 -4
9 -13 9 -21z m-656 -195 c-8 -14 -24 -10 -24 6 0 9 6 12 15 9 8 -4 12 -10 9
-15z m3663 -25 c-3 -3 -12 -4 -19 -1 -8 3 -5 6 6 6 11 1 17 -2 13 -5z m-17
-105 c17 -13 18 -17 5 -10 -33 17 -51 31 -40 31 6 0 21 -10 35 -21z m220 -485
c0 -8 -5 -12 -10 -9 -6 4 -8 11 -5 16 9 14 15 11 15 -7z m27 -16 c-3 -8 -6 -5
-6 6 -1 11 2 17 5 13 3 -3 4 -12 1 -19z m170 16 c-3 -3 -12 -4 -19 -1 -8 3 -5
6 6 6 11 1 17 -2 13 -5z m-124 -17 c4 3 7 4 7 1 0 -3 -6 -11 -14 -17 -11 -9
-15 -7 -19 9 -4 16 -2 19 7 11 7 -6 16 -8 19 -4z m45 -62 c-3 -3 -9 2 -12 12
-6 14 -5 15 5 6 7 -7 10 -15 7 -18z m-3545 -95 c-3 -11 -9 -20 -14 -20 -5 0
-5 7 -2 17 5 12 3 14 -7 8 -9 -5 -11 -4 -6 3 12 20 35 14 29 -8z m-123 -120
c0 -5 -2 -10 -4 -10 -3 0 -8 5 -11 10 -3 6 -1 10 4 10 6 0 11 -4 11 -10z
m-533 -96 c-3 -3 -12 -4 -19 -1 -8 3 -5 6 6 6 11 1 17 -2 13 -5z m3508 -183
c-3 -6 -11 -11 -16 -11 -5 0 -4 6 3 14 14 16 24 13 13 -3z m-45 -20 c0 -5 -13
-14 -30 -21 -16 -7 -30 -16 -30 -20 0 -4 -8 -11 -17 -14 -39 -15 32 45 75 63
1 1 2 -3 2 -8z m-39 -131 c-13 -11 -28 -20 -35 -20 -6 0 3 9 19 20 38 25 47
25 16 0z m650 -242 l0 -23 9 23 c5 12 15 22 22 22 10 0 9 -3 -1 -9 -8 -5 -11
-16 -8 -25 4 -9 1 -16 -6 -16 -8 0 -6 -4 3 -10 8 -5 11 -10 5 -11 -5 0 -1 -4
10 -9 13 -6 15 -9 5 -9 -9 -1 -16 -11 -16 -25 -1 -19 2 -23 15 -18 13 5 14 3
4 -10 -7 -8 -10 -18 -6 -21 3 -4 0 -7 -7 -7 -9 0 -7 -5 6 -15 11 -8 14 -15 7
-15 -7 0 -13 -6 -13 -14 0 -8 6 -17 13 -19 7 -3 5 -6 -5 -6 -10 -1 -18 5 -19
12 0 6 -2 21 -4 32 -2 11 -6 46 -10 78 -6 51 -9 57 -26 52 -15 -5 -19 -1 -19
17 0 42 39 67 41 26z m-15 -94 c-3 -7 -1 -16 4 -19 16 -10 12 -35 -5 -29 -9 4
-15 19 -15 41 0 22 4 32 11 28 6 -4 8 -13 5 -21z m-229 -6 c-3 -8 -6 -5 -6 6
-1 11 2 17 5 13 3 -3 4 -12 1 -19z m33 -4 c0 -8 -4 -12 -10 -9 -5 3 -10 13
-10 21 0 8 5 12 10 9 6 -3 10 -13 10 -21z m-2385 -54 c-3 -5 -16 -15 -28 -21
-21 -10 -21 -9 2 10 25 23 36 27 26 11z m-80 -50 c-3 -5 -12 -10 -18 -10 -7 0
-6 4 3 10 19 12 23 12 15 0z"/>
<path d="M2985 3450 c-3 -5 -1 -10 4 -10 6 0 11 5 11 10 0 6 -2 10 -4 10 -3 0
-8 -4 -11 -10z"/>
<path d="M3240 3181 c0 -6 4 -13 10 -16 6 -3 7 1 4 9 -7 18 -14 21 -14 7z"/>
<path d="M2751 3164 c0 -11 3 -14 6 -6 3 7 2 16 -1 19 -3 4 -6 -2 -5 -13z"/>
<path d="M3161 3144 c0 -11 3 -14 6 -6 3 7 2 16 -1 19 -3 4 -6 -2 -5 -13z"/>
<path d="M2675 3130 c-3 -5 -1 -10 4 -10 6 0 11 5 11 10 0 6 -2 10 -4 10 -3 0
-8 -4 -11 -10z"/>
<path d="M2726 3095 c-4 -13 -2 -14 14 -5 23 13 26 20 6 20 -8 0 -16 -7 -20
-15z"/>
<path d="M3264 3033 c-11 -11 -13 -18 -5 -21 6 -2 8 -9 4 -15 -4 -7 0 -7 9 1
9 7 16 22 15 33 -2 23 -1 23 -23 2z"/>
<path d="M2706 3023 c-4 -10 -4 -14 0 -10 4 4 13 2 21 -5 17 -13 28 -4 20 17
-8 20 -33 19 -41 -2z"/>
<path d="M2691 2976 c-9 -10 -10 -16 -2 -16 7 0 8 -8 0 -26 -12 -32 -10 -35
18 -28 22 6 23 17 6 62 -8 21 -10 22 -22 8z"/>
<path d="M3290 2966 c0 -9 5 -16 10 -16 6 0 10 4 10 9 0 6 -4 13 -10 16 -5 3
-10 -1 -10 -9z"/>
<path d="M3276 2925 c-4 -11 2 -15 20 -15 23 0 24 2 10 15 -8 8 -17 15 -19 15
-3 0 -7 -7 -11 -15z"/>
<path d="M2535 3129 c-11 -17 0 -20 21 -4 17 13 17 14 2 15 -9 0 -20 -5 -23
-11z"/>
<path d="M2240 4590 c0 -5 9 -14 20 -20 27 -14 34 -51 20 -94 -9 -29 -17 -36
-38 -36 -20 0 -23 -3 -13 -9 11 -7 9 -10 -10 -13 -46 -6 -33 -33 23 -48 29 -8
56 -13 61 -12 4 1 7 -2 7 -8 0 -5 7 -7 15 -4 8 4 15 1 15 -5 0 -6 6 -11 13
-11 7 0 27 -14 46 -30 18 -17 37 -28 42 -25 5 4 9 0 9 -7 0 -9 3 -9 10 2 5 8
7 24 4 34 -5 15 -3 18 10 13 11 -4 15 -3 10 4 -4 7 3 9 17 7 13 -1 24 -7 24
-13 0 -20 17 -35 37 -35 18 0 19 4 13 37 -4 20 -15 48 -26 61 -14 19 -19 39
-18 83 1 33 5 59 10 59 5 0 4 11 -1 25 -8 20 -6 27 5 31 43 17 -1 24 -145 24
-96 0 -160 -4 -160 -10z"/>
<path d="M2910 4590 c0 -5 5 -10 10 -10 6 0 10 5 10 10 0 6 -4 10 -10 10 -5 0
-10 -4 -10 -10z"/>
<path d="M3322 4569 c-1 -28 2 -31 26 -26 19 4 31 -1 45 -19 23 -29 41 -30 67
-4 22 22 40 19 40 -6 0 -8 5 -12 10 -9 6 3 10 3 10 -2 0 -4 18 -16 39 -26 38
-19 38 -19 36 -73 -2 -45 1 -57 18 -69 17 -12 24 -12 58 6 21 10 50 19 64 19
16 0 25 6 25 15 0 8 5 15 11 15 7 0 9 -11 5 -27 -3 -16 -3 -22 0 -15 10 21 24
13 24 -14 0 -15 4 -23 10 -19 6 4 10 14 9 23 -3 35 1 72 9 70 4 0 15 2 25 7
12 5 24 2 37 -10 11 -10 26 -14 38 -10 27 8 40 -14 18 -31 -11 -8 -13 -14 -7
-19 6 -3 11 -1 11 4 0 6 8 11 18 11 15 0 15 -2 2 -11 -12 -9 -13 -11 -1 -16 7
-3 22 -14 31 -23 10 -10 26 -20 37 -22 12 -2 17 -11 15 -26 -2 -16 2 -22 16
-22 21 0 66 -43 55 -53 -3 -4 0 -18 7 -32 11 -20 11 -27 -1 -41 -11 -13 -11
-18 -2 -21 9 -3 10 -10 4 -22 -5 -9 -6 -23 -1 -31 5 -8 3 -19 -6 -28 -11 -11
-12 -17 -3 -28 9 -11 7 -14 -8 -14 -11 0 -20 -7 -20 -15 0 -9 9 -15 21 -15 19
0 19 -2 -7 -24 -16 -14 -28 -28 -27 -32 1 -5 -4 -10 -10 -12 -14 -5 -3 39 11
48 8 6 3 55 -7 72 -3 4 -2 8 3 8 4 0 9 16 10 35 1 20 -2 33 -8 30 -5 -4 -9 -1
-9 5 0 7 -7 10 -14 7 -10 -4 -13 -1 -9 9 4 10 0 12 -11 8 -11 -4 -16 -1 -16
12 0 15 -2 16 -9 5 -6 -10 -10 -10 -16 -1 -4 6 -14 9 -22 5 -14 -5 -14 -3 -2
11 11 14 11 18 -6 30 -10 8 -32 14 -49 14 -29 0 -29 1 -10 16 19 15 18 15 -2
5 -11 -5 -26 -17 -34 -25 -7 -9 -22 -16 -34 -15 -14 0 -16 2 -6 6 27 11 51 51
33 54 -5 1 -21 3 -38 5 -16 2 -39 5 -51 8 -19 5 -61 -16 -76 -38 -5 -7 -8 -5
-8 4 -1 12 -3 11 -11 -3 -6 -9 -15 -14 -21 -11 -6 4 -17 -1 -25 -11 -7 -11
-13 -16 -13 -12 0 4 -10 1 -23 -8 -13 -8 -26 -12 -29 -9 -4 3 -9 -4 -13 -15
-8 -26 -45 -28 -46 -3 0 11 -4 7 -11 -11 -5 -15 -14 -25 -19 -21 -5 3 -9 0 -9
-6 0 -6 6 -13 14 -16 8 -3 12 -12 9 -21 -5 -12 -1 -14 17 -8 13 4 20 3 17 -2
-3 -5 -2 -15 3 -23 5 -8 5 -19 1 -25 -5 -5 -11 -20 -14 -33 -5 -22 -5 -23 18
-8 15 10 26 12 30 6 4 -6 11 -7 17 -4 7 4 8 2 4 -5 -4 -6 -11 -9 -16 -6 -4 3
-10 -4 -13 -15 -4 -15 0 -20 14 -20 13 0 19 -6 17 -17 -2 -13 3 -18 18 -17 15
0 20 -4 17 -13 -3 -8 -11 -12 -18 -9 -8 3 -16 -2 -19 -10 -5 -13 20 -19 64
-15 13 2 13 1 0 -8 -8 -6 -24 -11 -35 -12 -15 0 -12 -4 13 -15 17 -8 32 -21
32 -29 0 -8 7 -15 16 -15 8 0 12 -5 9 -10 -3 -6 0 -13 9 -16 8 -3 13 -14 11
-25 -2 -11 2 -22 10 -25 8 -3 17 -15 21 -26 4 -15 12 -18 30 -14 16 4 24 2 24
-6 0 -7 21 -22 46 -33 l46 -20 -34 -6 c-22 -4 -25 -7 -10 -8 12 0 22 -6 22
-12 0 -14 98 -5 114 11 13 13 26 13 26 0 0 -5 -17 -12 -37 -16 -29 -6 -33 -9
-19 -14 18 -6 18 -7 3 -13 -9 -3 -17 -2 -17 4 0 6 -5 7 -11 3 -8 -4 -7 -9 2
-15 12 -7 12 -9 0 -9 -8 0 -11 -3 -8 -6 4 -4 13 -1 21 5 10 8 27 10 48 5 28
-6 30 -8 13 -14 -17 -6 -16 -7 8 -14 15 -3 27 -11 27 -17 0 -6 -4 -7 -10 -4
-5 3 -10 2 -10 -4 0 -5 4 -13 10 -16 18 -11 4 -49 -21 -55 -20 -5 -21 -7 -6
-13 9 -3 24 -4 33 0 19 7 34 -13 29 -39 -2 -10 0 -16 5 -13 9 6 31 -50 23 -59
-10 -9 -35 -7 -29 2 3 5 -1 9 -9 9 -8 0 -15 -4 -15 -8 0 -8 33 -21 46 -18 5 1
22 -1 37 -6 24 -6 26 -9 11 -19 -14 -11 -14 -13 -1 -25 10 -7 14 -24 12 -42
-3 -22 0 -29 13 -30 10 0 12 -3 4 -6 -6 -2 -9 -9 -6 -15 4 -6 -2 -8 -17 -3
l-24 7 23 -17 c12 -9 27 -13 32 -10 6 3 10 1 10 -5 0 -6 -7 -13 -15 -16 -14
-6 -14 -8 1 -19 12 -8 15 -19 10 -38 -4 -19 -2 -27 6 -27 7 0 18 -11 24 -25
10 -20 9 -25 -5 -28 -14 -4 -14 -5 2 -6 18 -1 24 -21 6 -21 -6 0 -8 -7 -5 -16
4 -10 0 -15 -12 -13 -30 3 -35 -1 -23 -15 9 -10 8 -16 -4 -26 -10 -9 -15 -9
-15 -1 0 6 -10 11 -22 11 -18 0 -18 -15 0 -15 4 0 12 -4 19 -8 6 -4 14 -3 18
3 4 6 11 7 17 4 7 -4 8 -2 4 4 -11 18 6 14 34 -9 l25 -20 -30 2 c-49 3 -126
-12 -118 -24 4 -6 -1 -8 -13 -5 -19 5 -21 1 -26 -47 -2 -14 -38 -14 -38 -1 0
6 -5 5 -12 -2 -8 -8 -8 -15 1 -26 15 -18 7 -36 -17 -37 -11 0 -12 -3 -4 -6 18
-7 15 -21 -7 -28 -19 -6 -37 -45 -20 -45 4 0 13 -9 20 -21 10 -19 9 -20 -13
-14 -12 4 -20 4 -15 0 4 -5 0 -16 -9 -26 -13 -14 -14 -24 -6 -48 6 -16 8 -32
5 -35 -4 -3 -1 -6 5 -6 7 0 11 -3 11 -7 -1 -5 0 -11 1 -15 4 -12 7 -27 9 -38
2 -13 68 -30 119 -30 26 0 41 -4 37 -10 -3 -6 1 -10 10 -10 9 0 14 -4 11 -9
-4 -5 0 -12 6 -15 7 -3 1 -3 -14 0 -16 4 -28 2 -28 -3 0 -14 22 -33 40 -33 13
0 13 1 0 10 -9 6 -10 10 -3 10 6 0 20 -13 30 -30 9 -17 26 -30 36 -30 16 0 17
-3 7 -15 -10 -12 -7 -15 14 -21 14 -3 23 -10 20 -15 -6 -10 11 -29 41 -47 19
-11 19 -11 -5 -13 -27 -1 -24 -3 38 -24 22 -7 31 -25 12 -25 -5 0 -10 -4 -10
-10 0 -5 12 -10 27 -10 14 0 23 -3 20 -6 -4 -4 3 -15 14 -25 12 -11 19 -25 15
-34 -3 -9 0 -15 8 -15 15 0 29 -27 21 -40 -3 -5 -1 -11 5 -15 5 -3 10 -13 10
-22 0 -9 7 -25 17 -35 12 -13 13 -18 3 -18 -9 0 -7 -6 6 -19 10 -10 22 -17 26
-14 9 5 50 -16 60 -31 6 -8 8 -8 8 1 0 6 9 9 20 6 20 -5 20 0 20 1295 0 1164
-2 1301 -16 1312 -45 38 -50 128 -8 151 19 10 24 20 24 51 l0 39 -187 -4
c-225 -6 -278 -14 -278 -42 0 -11 -7 -20 -15 -20 -9 0 -15 9 -15 23 0 34 -21
42 -117 42 l-87 0 -12 -42 c-29 -112 -32 -118 -62 -118 -46 0 -127 92 -127
144 0 13 -29 15 -188 15 l-189 0 -1 -30z m628 -420 c13 -9 12 -10 -2 -5 -10 3
-18 1 -18 -5 0 -6 -5 -7 -10 -4 -11 7 -4 25 8 25 4 0 14 -5 22 -11z m-290
-293 c0 -2 -7 -7 -16 -10 -8 -3 -12 -2 -9 4 6 10 25 14 25 6z m335 -125 c-3
-6 -14 -11 -23 -11 -13 0 -13 2 4 14 21 15 30 14 19 -3z m-6 -50 c-19 -8 -23
-31 -4 -31 29 0 15 -25 -15 -26 -18 -1 -27 3 -23 9 4 7 -1 8 -12 3 -18 -7 -18
-6 0 14 10 11 15 20 11 20 -4 0 -1 6 6 13 7 8 21 12 32 9 15 -4 16 -7 5 -11z
m-26 -95 c12 -9 14 -16 8 -21 -6 -3 -18 0 -26 9 -27 27 -14 36 18 12z m341
-102 c16 -6 23 -34 8 -34 -4 0 -15 9 -25 20 -17 20 -11 25 17 14z"/>
<path d="M2923 4343 c-4 -9 -7 -35 -7 -57 -1 -35 2 -41 22 -44 15 -2 22 -10
22 -25 1 -21 2 -20 21 6 15 19 27 26 40 22 14 -5 19 -1 19 14 0 12 -5 21 -12
21 -6 0 -3 9 8 21 10 11 14 19 9 18 -6 -2 -29 7 -52 19 -51 26 -62 27 -70 5z"/>
<path d="M3718 4343 c7 -3 16 -2 19 1 4 3 -2 6 -13 5 -11 0 -14 -3 -6 -6z"/>
<path d="M3908 4333 c7 -3 16 -2 19 1 4 3 -2 6 -13 5 -11 0 -14 -3 -6 -6z"/>
<path d="M3520 4317 c0 -9 -6 -18 -12 -21 -7 -3 -1 -3 15 -1 15 2 25 0 22 -6
-4 -5 -11 -9 -17 -9 -6 0 -17 -8 -25 -17 -14 -17 -14 -17 -9 0 6 20 -19 24
-27 5 -4 -10 -8 -9 -16 2 -9 13 -11 13 -11 -2 0 -9 -8 -23 -18 -30 -25 -18
-38 -52 -17 -44 8 3 15 1 15 -3 0 -5 8 -8 18 -6 9 1 25 -2 35 -7 13 -6 17 -5
17 7 0 9 5 13 10 10 6 -3 10 2 10 12 0 15 2 16 10 3 7 -12 12 -12 22 -2 6 6
22 12 35 12 14 0 23 6 23 15 0 8 -5 15 -11 15 -6 0 -9 7 -5 15 3 8 0 15 -7 15
-7 0 -17 10 -22 22 -12 26 -35 36 -35 15z"/>
<path d="M3770 4320 c0 -5 5 -10 11 -10 5 0 7 5 4 10 -3 6 -8 10 -11 10 -2 0
-4 -4 -4 -10z"/>
<path d="M3958 4303 c7 -3 16 -2 19 1 4 3 -2 6 -13 5 -11 0 -14 -3 -6 -6z"/>
<path d="M3612 4250 c0 -14 2 -19 5 -12 2 6 2 18 0 25 -3 6 -5 1 -5 -13z"/>
<path d="M1011 4234 c0 -11 3 -14 6 -6 3 7 2 16 -1 19 -3 4 -6 -2 -5 -13z"/>
<path d="M2927 4189 c7 -7 15 -10 18 -7 3 3 -2 9 -12 12 -14 6 -15 5 -6 -5z"/>
<path d="M2514 3999 c-3 -6 1 -18 10 -27 10 -10 16 -12 16 -4 0 6 7 9 17 5 22
-9 8 13 -17 27 -13 7 -21 7 -26 -1z"/>
<path d="M2890 3864 c0 -5 7 -18 15 -28 8 -11 15 -16 15 -10 0 5 -7 18 -15 28
-8 11 -15 16 -15 10z"/>
<path d="M2947 3826 c-3 -8 0 -20 8 -26 10 -8 13 -5 11 15 -1 28 -11 33 -19
11z"/>
<path d="M3363 3829 c-22 -7 -31 -14 -27 -24 4 -8 1 -15 -5 -15 -6 0 -11 -4
-11 -9 0 -12 61 -7 86 7 18 11 18 12 -5 18 -23 7 -23 8 -6 21 21 15 14 15 -32
2z"/>
<path d="M2395 3820 c3 -5 11 -10 16 -10 6 0 7 5 4 10 -3 6 -11 10 -16 10 -6
0 -7 -4 -4 -10z"/>
<path d="M2528 3803 c6 -2 18 -2 25 0 6 3 1 5 -13 5 -14 0 -19 -2 -12 -5z"/>
<path d="M2641 3798 c-33 -6 -49 -13 -41 -18 12 -7 44 -2 105 18 39 13 8 13
-64 0z"/>
<path d="M3003 3795 c0 -8 4 -12 9 -9 4 3 8 9 8 15 0 5 -4 9 -8 9 -5 0 -9 -7
-9 -15z"/>
<path d="M3085 3799 c-4 -6 -4 -13 -1 -16 3 -4 6 0 6 8 0 12 2 11 10 -1 5 -8
7 -26 4 -40 -4 -25 -4 -25 6 -2 7 16 7 30 0 43 -12 22 -16 23 -25 8z"/>
<path d="M2468 3763 c7 -3 16 -2 19 1 4 3 -2 6 -13 5 -11 0 -14 -3 -6 -6z"/>
<path d="M2490 3740 c20 -13 33 -13 25 0 -3 6 -14 10 -23 10 -15 0 -15 -2 -2
-10z"/>
<path d="M2668 3743 c7 -3 16 -2 19 1 4 3 -2 6 -13 5 -11 0 -14 -3 -6 -6z"/>
<path d="M2723 3733 c9 -2 23 -2 30 0 6 3 -1 5 -18 5 -16 0 -22 -2 -12 -5z"/>
<path d="M3415 3730 c-16 -7 -17 -9 -3 -9 9 -1 20 4 23 9 7 11 7 11 -20 0z"/>
<path d="M2645 3720 c-3 -5 -2 -10 4 -10 5 0 13 5 16 10 3 6 2 10 -4 10 -5 0
-13 -4 -16 -10z"/>
<path d="M2790 3726 c0 -2 8 -10 18 -17 15 -13 16 -12 3 4 -13 16 -21 21 -21
13z"/>
<path d="M3125 3720 c-3 -5 -2 -10 4 -10 5 0 13 5 16 10 3 6 2 10 -4 10 -5 0
-13 -4 -16 -10z"/>
<path d="M3360 3723 c0 -6 -10 -9 -22 -7 -21 4 -21 4 -3 -5 20 -9 45 3 32 16
-4 3 -7 2 -7 -4z"/>
<path d="M3448 3713 c6 -2 18 -2 25 0 6 3 1 5 -13 5 -14 0 -19 -2 -12 -5z"/>
<path d="M2574 3699 c12 -8 25 -8 40 -1 18 9 16 11 -19 11 -33 0 -37 -1 -21
-10z"/>
<path d="M2653 3693 c9 -2 23 -2 30 0 6 3 -1 5 -18 5 -16 0 -22 -2 -12 -5z"/>
<path d="M3510 3690 c-8 -5 -11 -12 -8 -16 4 -3 14 1 23 10 18 17 9 21 -15 6z"/>
<path d="M3439 3677 c5 -5 19 -7 32 -5 20 3 19 5 -9 9 -20 3 -29 2 -23 -4z"/>
<path d="M2405 3660 c3 -5 17 -10 31 -10 14 0 22 4 19 10 -3 6 -17 10 -31 10
-14 0 -22 -4 -19 -10z"/>
<path d="M2508 3663 c20 -8 3 -23 -26 -24 -15 0 -21 -3 -14 -6 8 -3 35 1 60 8
43 12 45 14 22 20 -30 8 -62 10 -42 2z"/>
<path d="M2580 3660 c0 -5 7 -10 15 -10 8 0 15 5 15 10 0 6 -7 10 -15 10 -8 0
-15 -4 -15 -10z"/>
<path d="M3375 3660 c-19 -8 -19 -9 2 -9 12 -1 25 4 28 9 7 12 -2 12 -30 0z"/>
<path d="M3428 3653 c6 -2 18 -2 25 0 6 3 1 5 -13 5 -14 0 -19 -2 -12 -5z"/>
<path d="M2627 3628 c7 -8 10 -18 6 -22 -4 -4 0 -4 10 0 22 8 22 11 -5 25 -20
11 -21 10 -11 -3z"/>
<path d="M2410 3615 c7 -9 8 -15 2 -15 -5 0 -12 -6 -15 -14 -4 -10 0 -12 14
-9 11 3 22 9 25 14 9 15 54 10 54 -5 0 -19 40 -27 56 -11 11 10 11 14 1 18 -6
3 3 8 22 13 27 6 30 9 17 16 -11 6 -29 5 -52 -2 -25 -9 -43 -9 -66 -1 -17 6
-40 11 -51 11 -16 0 -17 -3 -7 -15z"/>
<path d="M3415 3620 c-3 -5 -3 -11 2 -11 55 -8 72 -6 89 7 10 9 13 12 5 8 -21
-11 -82 -14 -75 -3 3 5 1 9 -5 9 -5 0 -13 -4 -16 -10z"/>
<path d="M3719 3609 c-12 -7 -11 -9 1 -9 8 0 26 -3 39 -7 16 -4 22 -2 18 4
-10 15 -43 22 -58 12z"/>
<path d="M2575 3590 c-3 -6 1 -7 9 -4 18 7 21 14 7 14 -6 0 -13 -4 -16 -10z"/>
<path d="M3686 3571 c-4 -5 3 -7 14 -4 23 6 26 13 6 13 -8 0 -17 -4 -20 -9z"/>
<path d="M2348 3563 c7 -3 16 -2 19 1 4 3 -2 6 -13 5 -11 0 -14 -3 -6 -6z"/>
<path d="M3548 3563 c7 -3 16 -2 19 1 4 3 -2 6 -13 5 -11 0 -14 -3 -6 -6z"/>
<path d="M3730 3560 c-24 -8 -24 -8 7 -9 17 -1 40 -4 50 -8 17 -6 17 -6 1 10
-18 19 -21 19 -58 7z"/>
<path d="M3948 3473 c7 -3 16 -2 19 1 4 3 -2 6 -13 5 -11 0 -14 -3 -6 -6z"/>
<path d="M2099 3178 c-4 -15 -6 -38 -3 -38 2 0 8 9 14 20 7 14 7 20 0 20 -5 0
-10 -1 -11 -2z"/>
<path d="M3915 3080 c-3 -5 1 -10 9 -10 9 0 16 5 16 10 0 6 -4 10 -9 10 -6 0
-13 -4 -16 -10z"/>
<path d="M3916 3046 c3 -9 13 -16 22 -16 8 0 13 1 11 3 -2 1 -12 9 -22 16 -15
12 -17 12 -11 -3z"/>
<path d="M1828 2823 c7 -3 16 -2 19 1 4 3 -2 6 -13 5 -11 0 -14 -3 -6 -6z"/>
<path d="M3880 2819 c0 -5 -4 -8 -9 -4 -5 3 -12 1 -15 -4 -4 -5 2 -8 11 -7 15
3 33 26 19 26 -3 0 -6 -5 -6 -11z"/>
<path d="M4110 2790 c-13 -8 -12 -10 3 -10 9 0 17 5 17 10 0 12 -1 12 -20 0z"/>
<path d="M4016 2734 c-3 -8 -2 -13 3 -9 5 3 12 -1 14 -7 4 -8 6 -7 6 4 1 23
-15 32 -23 12z"/>
<path d="M2104 2665 c-10 -7 -15 -17 -11 -21 4 -4 -3 -14 -15 -21 l-23 -12 22
-1 c13 0 27 9 34 23 7 12 16 25 22 28 6 4 6 9 0 12 -6 4 -19 0 -29 -8z"/>
<path d="M2121 2633 c-7 -13 -7 -23 0 -30 6 -6 0 -9 -20 -8 -17 1 -28 -2 -25
-7 3 -4 17 -8 32 -8 24 0 25 -1 7 -13 -11 -9 -14 -16 -7 -21 6 -3 16 7 23 23
7 16 17 28 21 25 10 -6 1 37 -11 49 -6 6 -13 2 -20 -10z m10 -16 c-10 -9 -11
-8 -5 6 3 10 9 15 12 12 3 -3 0 -11 -7 -18z"/>
<path d="M3915 2200 c3 -5 -1 -10 -10 -10 -20 0 -14 -24 6 -26 8 -1 21 -2 29
-3 13 -1 13 -2 0 -11 -9 -6 -10 -10 -3 -10 22 0 24 19 4 30 -12 6 -18 16 -15
25 4 8 1 15 -6 15 -6 0 -8 -4 -5 -10z"/>
<path d="M8 2023 c7 -3 16 -2 19 1 4 3 -2 6 -13 5 -11 0 -14 -3 -6 -6z"/>
<path d="M520 1740 c0 -5 5 -10 10 -10 6 0 10 5 10 10 0 6 -4 10 -10 10 -5 0
-10 -4 -10 -10z"/>
<path d="M23 1703 c-18 -3 -23 -11 -23 -34 0 -28 2 -29 44 -29 52 0 64 12 45
46 -12 23 -21 26 -66 17z"/>
<path d="M180 1495 c-14 -7 -24 -17 -22 -22 1 -4 -16 -14 -39 -22 -22 -7 -43
-21 -46 -30 -4 -9 -9 -18 -12 -21 -3 -3 -12 -15 -19 -28 -11 -19 -9 -25 16
-52 37 -38 90 -41 123 -7 12 12 19 16 15 10 -5 -8 -1 -13 9 -13 9 0 14 4 10 9
-8 13 79 63 97 56 11 -5 15 0 13 17 -4 37 -4 38 -19 38 -8 0 -24 16 -36 35
-12 19 -25 35 -30 35 -5 0 -14 2 -22 5 -7 2 -24 -2 -38 -10z m44 -62 c-6 -2
-8 -17 -6 -33 3 -19 0 -30 -8 -30 -7 0 -10 7 -6 15 3 10 -1 15 -11 15 -15 0
-15 2 1 19 10 11 14 25 9 37 -7 18 -6 18 12 0 11 -11 15 -21 9 -23z"/>
<path d="M571 1494 c0 -11 3 -14 6 -6 3 7 2 16 -1 19 -3 4 -6 -2 -5 -13z"/>
<path d="M600 1469 c0 -5 5 -7 10 -4 6 3 10 8 10 11 0 2 -4 4 -10 4 -5 0 -10
-5 -10 -11z"/>
<path d="M575 1440 c-3 -5 -1 -10 4 -10 6 0 11 5 11 10 0 6 -2 10 -4 10 -3 0
-8 -4 -11 -10z"/>
<path d="M606 1426 c3 -8 11 -14 17 -12 7 1 9 1 4 -1 -4 -3 -4 -10 -1 -15 4
-7 2 -8 -4 -4 -7 4 -12 1 -12 -8 0 -9 -8 -16 -17 -17 -23 -1 24 -17 55 -18 19
-1 22 4 20 30 -3 33 -11 43 -45 53 -18 6 -22 4 -17 -8z"/>
<path d="M12 1408 c-15 -15 -15 -28 -1 -28 5 0 8 4 5 9 -4 5 0 11 6 14 7 2 10
7 7 10 -3 4 -11 1 -17 -5z"/>
<path d="M579 1407 c6 -8 7 -18 3 -22 -4 -5 -2 -5 5 -1 14 8 6 36 -9 36 -7 0
-6 -5 1 -13z"/>
<path d="M875 1090 c-19 -8 -19 -9 3 -9 12 -1 22 4 22 9 0 6 -1 10 -2 9 -2 0
-12 -4 -23 -9z"/>
<path d="M1168 563 c6 -2 18 -2 25 0 6 3 1 5 -13 5 -14 0 -19 -2 -12 -5z"/>
<path d="M528 531 c-7 -12 -23 -21 -35 -21 -12 0 -32 -10 -43 -22 -17 -19 -32
-23 -83 -24 -34 0 -72 3 -85 7 -30 11 -85 12 -157 2 -58 -8 -59 -9 -68 -46 -7
-27 -15 -39 -33 -43 l-24 -6 0 -189 0 -189 649 0 c404 0 652 4 656 10 3 5 0
19 -7 30 -11 17 -11 22 1 29 7 5 10 14 7 20 -4 6 -3 11 3 11 7 0 7 8 1 25 -7
18 -6 38 5 67 7 23 12 45 9 50 -3 4 4 8 15 8 23 0 28 15 9 23 -10 4 -9 8 2 16
17 12 20 31 8 47 -5 7 -3 14 7 18 17 6 21 46 4 46 -5 0 -7 5 -4 10 3 6 0 10
-7 10 -7 0 -29 13 -48 28 -43 35 -69 42 -185 46 -76 4 -93 1 -113 -15 -32 -25
-66 -24 -83 1 -10 15 -28 21 -68 25 -36 2 -61 11 -75 24 -27 25 -32 25 -71 5
-41 -21 -131 -20 -155 1 -18 16 -19 16 -32 -4z m280 -122 c36 -12 44 -44 12
-52 -12 -3 -20 0 -20 8 0 7 -17 15 -39 19 -45 7 -56 23 -32 47 14 14 18 15 32
3 8 -8 30 -19 47 -25z"/>
<path d="M4535 520 c-3 -5 -1 -18 5 -27 9 -15 10 -14 4 6 -4 17 -3 21 6 16 9
-5 11 -4 6 3 -9 15 -13 15 -21 2z"/>
<path d="M4584 499 c-3 -6 -1 -16 5 -22 8 -8 11 -5 11 11 0 24 -5 28 -16 11z"/>
<path d="M4510 460 c0 -5 5 -10 11 -10 5 0 7 5 4 10 -3 6 -8 10 -11 10 -2 0
-4 -4 -4 -10z"/>
<path d="M4464 368 c-4 -7 -14 -24 -23 -38 -15 -25 -15 -25 6 -7 12 10 23 27
26 38 6 22 2 25 -9 7z"/>
<path d="M4490 369 c0 -5 5 -7 10 -4 6 3 10 8 10 11 0 2 -4 4 -10 4 -5 0 -10
-5 -10 -11z"/>
</g>
</svg>
